<svg width="166" height="180" viewBox="0 0 166 180" fill="none" xmlns="http://www.w3.org/2000/svg">
<path d="M1.68994 8.36751C14.1627 -2.51959 33.0882 4.8855 39.936 18.3817C47.5739 33.436 43.2376 50.7803 35.5997 64.8772C32.0253 71.4845 27.736 79.6968 21.2174 83.8545C13.8146 88.5566 6.67528 83.6199 5.62178 75.5766C3.45832 59.0207 27.5291 50.8553 39.8984 48.1336C55.7198 44.6516 73.2343 47.2701 84.757 59.4243C96.3738 71.6723 95.2545 89.1479 86.7512 102.804C82.8664 109.054 75.3037 119.04 66.7722 117.22C63.3012 116.478 60.1595 113.644 61.1001 109.815C61.9561 106.361 65.8881 104.043 68.8416 102.56C75.078 99.4249 82.4902 98.0922 89.2721 96.6468C96.769 95.0513 104.397 93.9251 112.073 93.9814C129.399 94.1128 145.296 102.25 150.724 119.566C156.518 138.065 148.607 156.911 136.746 171.167C138.345 171.589 139.934 172.012 141.534 172.425C139.633 164.156 137.733 155.888 135.833 147.61C133.962 148.126 132.09 148.642 130.218 149.158C133.284 158.544 135.551 168.098 136.99 177.859C137.263 179.68 139.859 180.571 141.289 179.605C149.087 174.339 156.875 169.065 164.673 163.8C167.787 161.697 164.852 156.62 161.71 158.741C153.922 164.015 146.124 169.29 138.335 174.555C139.765 175.137 141.204 175.719 142.634 176.301C141.186 166.54 138.928 156.976 135.833 147.61C134.658 144.071 129.362 145.498 130.218 149.158C132.146 157.418 134.084 165.686 136.012 173.945C136.473 175.916 139.427 176.864 140.8 175.203C153.856 159.398 162.529 138.562 156.095 118.083C150.263 99.5001 133.773 89.4107 114.857 88.5191C104.821 88.0498 94.709 89.7017 84.9547 91.9448C76.4984 93.8876 66.8945 95.7177 60.2066 101.677C54.6569 106.624 53.4904 115.014 59.8115 119.913C66.8756 125.394 75.8681 122.344 81.9634 117.013C96.1575 104.606 103.852 82.4936 95.1605 64.9241C86.2151 46.8572 64.8909 39.4614 45.8244 41.6576C29.8242 43.5065 2.45183 52.0191 0.137879 71.278C-0.718096 78.4297 2.42359 86.717 9.22435 89.9644C17.3326 93.8312 25.4785 88.5191 30.5955 82.3716C44.3287 65.8626 54.6663 40.6065 45.7303 19.63C41.9395 10.7139 34.7437 3.37447 25.1775 0.924868C16.2885 -1.35579 6.94803 0.549424 0.29777 6.99721C-0.586424 7.87944 0.758718 9.18404 1.68994 8.36751Z" fill="#FEFEFE"/>
</svg>
