<svg width="48" height="48" viewBox="0 0 48 48" fill="none" xmlns="http://www.w3.org/2000/svg">
<g clip-path="url(#clip0_16_591)">
<path d="M28.1197 15.0745C29.0528 14.0701 29.625 12.7259 29.625 11.25C29.625 8.14838 27.1016 5.625 24 5.625C20.8984 5.625 18.375 8.14838 18.375 11.25C18.375 12.7259 18.9472 14.0701 19.8803 15.0745C17.0378 16.5639 15.0938 19.5434 15.0938 22.9688V23.9062C15.0938 24.6829 15.7234 25.3125 16.5 25.3125H31.5C32.2766 25.3125 32.9062 24.6829 32.9062 23.9062V22.9688C32.9062 19.5434 30.9622 16.5639 28.1197 15.0745ZM24 8.4375C25.5508 8.4375 26.8125 9.69919 26.8125 11.25C26.8125 12.8008 25.5508 14.0625 24 14.0625C22.4492 14.0625 21.1875 12.8008 21.1875 11.25C21.1875 9.69919 22.4492 8.4375 24 8.4375ZM17.9241 22.5C18.1643 19.3581 20.7976 16.875 24 16.875C27.2024 16.875 29.8357 19.3581 30.0759 22.5H17.9241Z" fill="#003777"/>
<path d="M24 0C14.9536 0 7.59375 7.35984 7.59375 16.4062C7.59375 21.389 9.82294 26.0429 13.7096 29.1746C15.7808 30.8437 16.9688 33.222 16.9688 35.7V39.8438C16.9688 41.1501 17.7362 42.2801 18.8438 42.8077V42.8438C18.8438 45.6869 21.1568 48 24 48C26.8432 48 29.1562 45.6869 29.1562 42.8438V42.8077C30.2638 42.2801 31.0312 41.1501 31.0312 39.8438V35.7C31.0312 33.222 32.2192 30.8437 34.2904 29.1746C38.1771 26.0429 40.4062 21.389 40.4062 16.4062C40.4062 7.35984 33.0464 0 24 0ZM24 45.1875C22.8029 45.1875 21.8132 44.2852 21.6737 43.125H26.3262C26.1868 44.2852 25.1971 45.1875 24 45.1875ZM28.2188 39.8438C28.2188 40.1022 28.0085 40.3125 27.75 40.3125H20.25C19.9915 40.3125 19.7812 40.1022 19.7812 39.8438V37.5H28.2188V39.8438ZM32.5257 26.9847C30.0673 28.9657 28.5515 31.7301 28.2681 34.6875H19.732C19.4486 31.73 17.9328 28.9656 15.4744 26.9847C12.2535 24.3894 10.4062 20.5338 10.4062 16.4062C10.4062 8.91066 16.5044 2.8125 24 2.8125C31.4956 2.8125 37.5938 8.91066 37.5938 16.4062C37.5938 20.5338 35.7465 24.3894 32.5257 26.9847Z" fill="#003777"/>
<path d="M44.5614 6.79505L47.3739 4.92005C48.0201 4.48927 48.1947 3.61617 47.7639 2.96995C47.3331 2.32374 46.46 2.14917 45.8138 2.57995L43.0013 4.45495C42.3551 4.88574 42.1805 5.75883 42.6113 6.40505C43.0421 7.05117 43.9152 7.22583 44.5614 6.79505Z" fill="#003777"/>
<path d="M47.3739 27.8925L44.5614 26.0175C43.9152 25.5867 43.0421 25.7612 42.6113 26.4075C42.1805 27.0537 42.3551 27.9268 43.0013 28.3575L45.8138 30.2325C46.46 30.6633 47.3331 30.4888 47.7639 29.8425C48.1947 29.1964 48.0201 28.3233 47.3739 27.8925Z" fill="#003777"/>
<path d="M4.99892 4.45489L2.18642 2.57989C1.5402 2.14911 0.667107 2.32367 0.236326 2.96989C-0.194455 3.61611 -0.0198928 4.48921 0.626326 4.91999L3.43883 6.79499C4.08504 7.22577 4.95814 7.05121 5.38892 6.40499C5.8197 5.75886 5.64514 4.88577 4.99892 4.45489Z" fill="#003777"/>
<path d="M3.43883 26.0174L0.626326 27.8924C-0.0198928 28.3232 -0.194455 29.1963 0.236326 29.8425C0.667107 30.4887 1.5402 30.6633 2.18642 30.2325L4.99892 28.3575C5.64514 27.9267 5.8197 27.0536 5.38892 26.4074C4.95814 25.7613 4.08504 25.5866 3.43883 26.0174Z" fill="#003777"/>
<path d="M1.40625 17.8125H4.21875C4.99538 17.8125 5.625 17.1829 5.625 16.4062C5.625 15.6296 4.99538 15 4.21875 15H1.40625C0.629625 15 0 15.6296 0 16.4062C0 17.1829 0.629625 17.8125 1.40625 17.8125Z" fill="#003777"/>
<path d="M46.5938 15H43.7812C43.0046 15 42.375 15.6296 42.375 16.4062C42.375 17.1829 43.0046 17.8125 43.7812 17.8125H46.5938C47.3704 17.8125 48 17.1829 48 16.4062C48 15.6296 47.3704 15 46.5938 15Z" fill="#003777"/>
</g>
<defs>
<clipPath id="clip0_16_591">
<rect width="48" height="48" fill="white"/>
</clipPath>
</defs>
</svg>
