<svg width="48" height="48" viewBox="0 0 48 48" fill="none" xmlns="http://www.w3.org/2000/svg">
<g clip-path="url(#clip0_16_526)">
<path d="M44.16 25.9517V16.8C44.16 16.5384 44.0899 16.2826 43.9545 16.0589L36.154 3.05519C35.3764 1.76303 33.9561 0.959991 32.4489 0.959991H12.671C11.1633 0.959991 9.743 1.76303 8.9654 3.05663L1.1654 16.0589C1.03004 16.2826 0.959961 16.5384 0.959961 16.8V39.84C0.959961 42.2222 2.89772 44.16 5.27996 44.16H25.9516C28.1769 45.9576 31.0032 47.04 34.08 47.04C41.2267 47.04 47.04 41.2267 47.04 34.08C47.04 31.0032 45.9576 28.177 44.16 25.9517ZM24 3.83999H32.4489C32.9524 3.83999 33.4262 4.10879 33.6849 4.53887L40.1764 15.36H24V3.83999ZM11.435 4.54031C11.6937 4.10879 12.168 3.83999 12.671 3.83999H21.12V15.36H4.94348L11.435 4.54031ZM3.83996 39.84V18.24H41.28V23.3112C39.2193 21.9288 36.7425 21.12 34.08 21.12C26.9332 21.12 21.12 26.9333 21.12 34.08C21.12 36.7426 21.9288 39.2194 23.3112 41.28H5.27996C4.48556 41.28 3.83996 40.6344 3.83996 39.84ZM34.08 44.16C28.5225 44.16 24 39.6374 24 34.08C24 28.5226 28.5225 24 34.08 24C39.6374 24 44.16 28.5226 44.16 34.08C44.16 39.6374 39.6374 44.16 34.08 44.16ZM32.64 39.84C32.2713 39.84 31.9032 39.6994 31.6219 39.4181L27.3019 35.0981C26.7393 34.5355 26.7393 33.6245 27.3019 33.0619C27.8644 32.4993 28.7755 32.4993 29.338 33.0619L32.64 36.3638L38.8219 30.1819C39.3844 29.6194 40.2955 29.6194 40.858 30.1819C41.4206 30.7445 41.4206 31.6555 40.858 32.2181L33.658 39.4181C33.3768 39.6994 33.0086 39.84 32.64 39.84ZM15.36 25.44H9.59996C8.80412 25.44 8.15996 24.7958 8.15996 24C8.15996 23.2042 8.80412 22.56 9.59996 22.56H15.36C16.1558 22.56 16.8 23.2042 16.8 24C16.8 24.7958 16.1558 25.44 15.36 25.44Z" fill="#16BDE3"/>
</g>
<defs>
<clipPath id="clip0_16_526">
<rect width="48" height="48" fill="white"/>
</clipPath>
</defs>
</svg>
