<svg width="32" height="32" viewBox="0 0 32 32" fill="none" xmlns="http://www.w3.org/2000/svg">
<g clip-path="url(#clip0_16_272)">
<path fill-rule="evenodd" clip-rule="evenodd" d="M16 0C7.175 0 0 7.175 0 16C0 24.825 7.175 32 16 32C24.825 32 32 24.825 32 16C32 7.175 24.825 0 16 0Z" fill="#4BAE4F"/>
<path d="M12.9187 23.3186C10.875 21.2748 8.84375 19.2123 6.79375 17.1686C6.56875 16.9436 6.56875 16.5686 6.79375 16.3436L9.15 13.9873C9.375 13.7623 9.75 13.7623 9.975 13.9873L13.3438 17.3561L22.0063 8.6873C22.2375 8.4623 22.6062 8.4623 22.8375 8.6873L25.2 11.0498C25.4313 11.2811 25.4313 11.6498 25.2 11.8748L13.7437 23.3186C13.5187 23.5498 13.15 23.5498 12.9187 23.3186Z" fill="white"/>
</g>
<defs>
<clipPath id="clip0_16_272">
<rect width="32" height="32" fill="white"/>
</clipPath>
</defs>
</svg>
