<svg width="56" height="56" viewBox="0 0 56 56" fill="none" xmlns="http://www.w3.org/2000/svg">
<g clip-path="url(#clip0_16_486)">
<path fill-rule="evenodd" clip-rule="evenodd" d="M28 0C12.5563 0 0 12.5563 0 28C0 43.4437 12.5563 56 28 56C43.4437 56 56 43.4437 56 28C56 12.5563 43.4437 0 28 0Z" fill="#4BAE4F"/>
<path d="M22.6078 40.8082C19.0312 37.2316 15.4766 33.6223 11.8891 30.0457C11.4953 29.652 11.4953 28.9957 11.8891 28.602L16.0125 24.4785C16.4062 24.0848 17.0625 24.0848 17.4563 24.4785L23.3516 30.3738L38.5109 15.2035C38.9156 14.8098 39.5609 14.8098 39.9656 15.2035L44.1 19.3379C44.5047 19.7426 44.5047 20.3879 44.1 20.7816L24.0516 40.8082C23.6578 41.2129 23.0125 41.2129 22.6078 40.8082Z" fill="white"/>
</g>
<defs>
<clipPath id="clip0_16_486">
<rect width="56" height="56" fill="white"/>
</clipPath>
</defs>
</svg>
