<svg width="48" height="48" viewBox="0 0 48 48" fill="none" xmlns="http://www.w3.org/2000/svg">
<path d="M43.5 37.5H23.787C23.1161 34.9196 20.7881 33 18 33C15.2119 33 12.8839 34.9196 12.213 37.5H4.5C3.67088 37.5 3 38.1716 3 39C3 39.8284 3.67088 40.5 4.5 40.5H12.213C12.8839 43.0804 15.2119 45 18 45C20.7881 45 23.1161 43.0804 23.787 40.5H43.5C44.3291 40.5 45 39.8284 45 39C45 38.1716 44.3291 37.5 43.5 37.5ZM18 42C16.3463 42 15 40.6545 15 39C15 37.3455 16.3463 36 18 36C19.6537 36 21 37.3455 21 39C21 40.6545 19.6537 42 18 42ZM43.5 22.5H35.787C35.1161 19.9196 32.7881 18 30 18C27.2119 18 24.8839 19.9196 24.213 22.5H4.5C3.67088 22.5 3 23.1716 3 24C3 24.8284 3.67088 25.5 4.5 25.5H24.213C24.8839 28.0804 27.2119 30 30 30C32.7881 30 35.1161 28.0804 35.787 25.5H43.5C44.3291 25.5 45 24.8284 45 24C45 23.1716 44.3291 22.5 43.5 22.5ZM30 27C28.3463 27 27 25.6545 27 24C27 22.3455 28.3463 21 30 21C31.6537 21 33 22.3455 33 24C33 25.6545 31.6537 27 30 27ZM4.5 10.5H12.213C12.8839 13.0804 15.2119 15 18 15C20.7881 15 23.1161 13.0804 23.787 10.5H43.5C44.3291 10.5 45 9.82838 45 9C45 8.17162 44.3291 7.5 43.5 7.5H23.787C23.1161 4.91962 20.7881 3 18 3C15.2119 3 12.8839 4.91962 12.213 7.5H4.5C3.67088 7.5 3 8.17162 3 9C3 9.82838 3.67088 10.5 4.5 10.5ZM18 6C19.6537 6 21 7.3455 21 9C21 10.6545 19.6537 12 18 12C16.3463 12 15 10.6545 15 9C15 7.3455 16.3463 6 18 6Z" fill="#A431FF"/>
</svg>
