<svg width="48" height="48" viewBox="0 0 48 48" fill="none" xmlns="http://www.w3.org/2000/svg">
<g clip-path="url(#clip0_16_818)">
<path d="M48 23.998C48 35.9774 39.2231 45.9065 27.75 47.7065V30.9355H33.3422L34.4062 23.998H27.75V19.4962C27.75 17.5977 28.68 15.748 31.6613 15.748H34.6875V9.8418C34.6875 9.8418 31.9406 9.37305 29.3147 9.37305C23.8331 9.37305 20.25 12.6955 20.25 18.7105V23.998H14.1562V30.9355H20.25V47.7065C8.77688 45.9065 0 35.9774 0 23.998C0 10.7437 10.7456 -0.00195312 24 -0.00195312C37.2544 -0.00195312 48 10.7437 48 23.998Z" fill="#1877F2"/>
<path d="M33.3422 30.9346L34.4062 23.9971H27.75V19.4951C27.75 17.5971 28.6798 15.7471 31.6612 15.7471H34.6875V9.84082C34.6875 9.84082 31.941 9.37207 29.3152 9.37207C23.833 9.37207 20.25 12.6946 20.25 18.7096V23.9971H14.1562V30.9346H20.25V47.7054C21.4719 47.8971 22.7243 47.9971 24 47.9971C25.2757 47.9971 26.5281 47.8971 27.75 47.7054V30.9346H33.3422Z" fill="white"/>
</g>
<defs>
<clipPath id="clip0_16_818">
<rect width="48" height="48" fill="white"/>
</clipPath>
</defs>
</svg>
