<svg width="41" height="40" viewBox="0 0 41 40" fill="none" xmlns="http://www.w3.org/2000/svg">
<g clip-path="url(#clip0_16_1984)">
<path d="M1.74717 14.4121C1.33113 14.3036 0.905895 14.5528 0.79729 14.9688C0.787325 15.0069 0.777516 15.0452 0.767862 15.0835C0.662138 15.5003 0.914303 15.9238 1.33105 16.0296C1.39528 16.0459 1.45966 16.0536 1.52303 16.0536C1.8708 16.0536 2.18766 15.8189 2.27711 15.4664L2.30389 15.362C2.4125 14.9459 2.16321 14.5206 1.74717 14.4121Z" fill="white"/>
<path d="M26.5014 1.12506C24.4412 0.425243 22.2832 0.0703125 20.0876 0.0703125C16.2344 0.0703125 12.4953 1.17185 9.27446 3.25589C6.13793 5.28535 3.63995 8.14013 2.05051 11.5116C1.86725 11.9006 2.03385 12.3645 2.4228 12.5478C2.53009 12.5984 2.64305 12.6223 2.75422 12.6223C3.04625 12.6223 3.32621 12.4572 3.45895 12.1756C4.868 9.18662 7.04025 6.69129 9.6754 4.87912C9.70109 4.89235 9.72756 4.90457 9.7552 4.91508L14.5121 6.72477C14.6235 6.7672 14.6953 6.87565 14.6911 6.99468C14.6876 7.09099 14.7021 7.18721 14.7337 7.2783C14.9903 8.01642 15.5535 8.6067 16.2789 8.89756C17.0043 9.18834 17.8192 9.15073 18.5147 8.79448C18.5176 8.793 18.5205 8.79152 18.5234 8.78997L19.5569 8.24391C20.7063 7.63666 22.033 7.71241 23.1058 8.44695C24.1787 9.18149 24.7295 10.391 24.579 11.6827L24.5695 11.7646C24.5112 12.2654 24.1656 12.6616 23.689 12.7741C23.1742 12.8957 22.5879 13.0353 22.0856 13.1555C21.0675 13.3989 20.2757 14.2192 20.0685 15.2453L19.4004 18.5532C19.2431 19.3315 19.435 20.1356 19.9268 20.7592C20.4185 21.3828 21.1558 21.7568 21.9494 21.7854L22.8068 21.8162C22.9543 21.8215 23.0974 21.8548 23.2321 21.9151C23.3354 21.9612 23.4433 21.9831 23.5494 21.9831C23.8471 21.983 24.1312 21.8114 24.2606 21.5221C24.4361 21.1296 24.2602 20.6691 23.8677 20.4936C23.5494 20.3513 23.2113 20.2728 22.8629 20.2602L22.0055 20.2294C21.6696 20.2173 21.3576 20.0591 21.1494 19.7951C20.9413 19.5311 20.8601 19.1908 20.9267 18.8615L21.5948 15.5536C21.6824 15.1198 22.0172 14.7729 22.4478 14.6699C22.9488 14.55 23.5335 14.4108 24.0468 14.2895C25.1517 14.0287 25.9833 13.0864 26.1162 11.9446L26.1258 11.8627C26.3443 9.9864 25.5441 8.22927 23.9855 7.16214C22.427 6.09517 20.4996 5.98486 18.8296 6.86724L17.8009 7.41073C17.5032 7.56192 17.1686 7.57679 16.8586 7.4523C16.5809 7.34097 16.3662 7.13552 16.2448 6.86763C16.1996 6.15559 15.7433 5.52732 15.0659 5.26955L11.3472 3.85481C13.9888 2.42247 16.9851 1.62744 20.0876 1.62744C22.1125 1.62744 24.1019 1.95442 26.0005 2.59943C26.4077 2.73778 26.8498 2.51987 26.9881 2.1127C27.1264 1.70561 26.9085 1.2634 26.5014 1.12506Z" fill="white"/>
<path d="M39.2442 14.4816C39.1254 14.0683 38.694 13.8296 38.281 13.9485C37.8677 14.0673 37.6291 14.4986 37.7479 14.9119C38.2212 16.558 38.4613 18.2697 38.4613 19.9997C38.4613 21.8834 38.1774 23.7407 37.6178 25.5199C37.4888 25.9301 37.7167 26.3672 38.1268 26.4962C38.2046 26.5206 38.2832 26.5323 38.3607 26.5323C38.6915 26.5323 38.9985 26.3196 39.1031 25.9872C39.7103 24.0565 40.0182 22.0421 40.0182 19.9997C40.0182 18.1241 39.7578 16.2676 39.2442 14.4816Z" fill="white"/>
<path d="M37.0675 28.9169C36.7391 28.7223 36.2469 28.7773 35.9917 29.2056C35.9902 29.2081 35.9887 29.2106 35.9872 29.2131C35.7368 29.6443 35.9279 30.1012 36.2574 30.2938C36.3742 30.3621 36.5113 30.399 36.651 30.399C36.9055 30.399 37.1684 30.2767 37.3317 29.9991C37.5846 29.5693 37.3959 29.1114 37.0675 28.9169Z" fill="white"/>
<path d="M34.8808 32.188C34.5604 31.9013 34.0682 31.9284 33.7814 32.2489C32.7177 33.4374 31.5127 34.4701 30.2043 35.3328C29.3065 34.9274 28.3659 33.9663 28.458 32.4601L28.9493 26.6408C28.9855 26.2123 28.6674 25.8357 28.239 25.7995C27.8108 25.7647 27.434 26.0813 27.3977 26.5098L26.9058 32.3376C26.9053 32.343 26.9049 32.3485 26.9046 32.3538C26.8066 33.8985 27.4939 35.337 28.6836 36.2331C26.0606 37.6218 23.1123 38.3732 20.0866 38.3732C19.2395 38.3732 18.3953 38.3141 17.5608 38.1985L18.2869 36.88H18.9221C20.5716 36.88 21.9136 35.5381 21.9136 33.8885V32.8139C21.9136 32.5076 22.0091 32.2149 22.1899 31.9676C22.4436 31.6205 22.3678 31.1333 22.0207 30.8796C21.6735 30.626 21.1864 30.7016 20.9328 31.0489C20.5558 31.5647 20.3566 32.1751 20.3566 32.8139V33.8885C20.3566 34.6794 19.7131 35.323 18.9222 35.323H17.8269C17.5432 35.323 17.2819 35.4774 17.145 35.7259L15.9469 37.9015C14.2665 37.5142 12.6443 36.8926 11.1374 36.0504C10.7619 35.8408 10.2878 35.9749 10.078 36.3503C9.86829 36.7257 10.0025 37.1999 10.3778 37.4097C13.3288 39.0587 16.6861 39.9304 20.0867 39.9304C25.7486 39.9304 31.163 37.5091 34.9417 33.2874C35.2284 32.9669 35.2012 32.4747 34.8808 32.188Z" fill="white"/>
<path d="M33.4921 3.40918C31.6836 3.40918 30.2124 4.88044 30.2124 6.68888C30.2124 8.49732 31.6836 9.96866 33.4921 9.96866C35.3005 9.96866 36.7718 8.4974 36.7718 6.68888C36.7718 4.88044 35.3005 3.40918 33.4921 3.40918ZM33.4921 8.4116C32.5422 8.4116 31.7694 7.63876 31.7694 6.68888C31.7694 5.739 32.5422 4.96623 33.4921 4.96623C34.442 4.96623 35.2147 5.739 35.2147 6.68888C35.2147 7.63876 34.442 8.4116 33.4921 8.4116Z" fill="white"/>
<path d="M19.1696 26.5359L15.7611 21.6237C15.7256 21.5726 15.6846 21.5277 15.6402 21.4879C14.7721 18.0901 11.6852 15.5703 8.0208 15.5703C3.68511 15.5703 0.157684 19.0977 0.157684 23.4334C0.157684 25.2292 0.778715 26.984 1.9068 28.3776C1.90859 28.38 1.91046 28.3824 1.91233 28.3849L7.40701 35.4276C7.55454 35.6167 7.78094 35.7273 8.02072 35.7273C8.26051 35.7273 8.48691 35.6168 8.63444 35.4278L14.1029 28.4219C14.1139 28.4079 14.1241 28.3937 14.1339 28.3793C15.0512 27.2465 15.6331 25.8768 15.8191 24.4386L17.8903 27.4236C18.0415 27.6415 18.284 27.7584 18.5307 27.7584C18.6838 27.7584 18.8385 27.7133 18.9738 27.6194C19.3271 27.3743 19.4148 26.8892 19.1696 26.5359ZM12.885 27.447C12.8653 27.4708 12.8471 27.4957 12.8307 27.5214L8.02104 33.6832L3.1554 27.4468C3.1473 27.4357 3.1389 27.4249 3.13018 27.4141C2.21743 26.2942 1.71474 24.8806 1.71474 23.4334C1.71474 19.9563 4.54359 17.1274 8.0208 17.1274C11.498 17.1274 14.3269 19.9563 14.3269 23.4334C14.3269 24.8961 13.8148 26.3215 12.885 27.447Z" fill="white"/>
<path d="M8.01982 19.0293C5.53001 19.0293 3.50436 21.0549 3.50436 23.5447C3.50436 26.0346 5.53001 28.0602 8.01982 28.0602C10.5096 28.0602 12.5353 26.0346 12.5353 23.5447C12.5353 21.0549 10.5097 19.0293 8.01982 19.0293ZM8.01982 26.5031C6.38857 26.5031 5.06142 25.176 5.06142 23.5447C5.06142 21.9135 6.38857 20.5863 8.01982 20.5863C9.65106 20.5863 10.9782 21.9135 10.9782 23.5447C10.9782 25.176 9.65114 26.5031 8.01982 26.5031Z" fill="white"/>
<path d="M33.4919 0.0703125C29.8931 0.0703125 26.9653 2.99812 26.9653 6.59693C26.9653 8.08657 27.4801 9.54226 28.4155 10.6988C28.4169 10.7006 28.4185 10.7026 28.42 10.7046L32.8781 16.4187C33.0257 16.6079 33.2521 16.7184 33.4918 16.7184H33.4919C33.7317 16.7184 33.9581 16.6079 34.1056 16.4189L38.5425 10.7346C38.5521 10.7224 38.5612 10.71 38.5699 10.6974C39.5046 9.5407 40.0185 8.08734 40.0185 6.59693C40.0185 2.99812 37.0907 0.0703125 33.4919 0.0703125ZM37.3252 9.75978C37.3069 9.78189 37.29 9.80485 37.2745 9.82852L33.4921 14.6744L29.6618 9.76491C29.6541 9.7544 29.646 9.74397 29.6377 9.73385C28.9185 8.85139 28.5224 7.73732 28.5224 6.59693C28.5224 3.85675 30.7517 1.62737 33.4919 1.62737C36.2322 1.62737 38.4615 3.85675 38.4615 6.59693C38.4615 7.74962 38.058 8.8728 37.3252 9.75978Z" fill="white"/>
<path d="M15.9816 32.5564C15.7979 32.1677 15.3339 32.0016 14.9451 32.185L14.5931 32.3513C14.2043 32.535 14.0381 32.999 14.2217 33.3878C14.3547 33.6691 14.6344 33.8339 14.9262 33.8339C15.0376 33.8339 15.1508 33.8098 15.2582 33.7591L15.6102 33.5928C15.999 33.4092 16.1652 32.9452 15.9816 32.5564Z" fill="white"/>
<path d="M33.4912 19.8525C33.0612 19.8525 32.7127 20.2012 32.7127 20.6311C32.7127 20.7315 32.707 20.8328 32.6958 20.932C32.6475 21.3592 32.9547 21.7447 33.3819 21.793C33.4117 21.7964 33.4411 21.798 33.4703 21.798C33.8611 21.798 34.198 21.5044 34.2429 21.1068C34.2606 20.9497 34.2697 20.7897 34.2697 20.6311C34.2697 20.2011 33.9212 19.8525 33.4912 19.8525Z" fill="white"/>
<path d="M28.4387 23.2705H28.0494C27.6194 23.2705 27.2709 23.6191 27.2709 24.049C27.2709 24.4789 27.6194 24.8276 28.0494 24.8276H28.4387C28.8686 24.8276 29.2172 24.4789 29.2172 24.049C29.2172 23.6191 28.8686 23.2705 28.4387 23.2705Z" fill="white"/>
<path d="M32.5147 23.1471C32.2912 22.7799 31.8122 22.6636 31.4449 22.887C31.3597 22.9389 31.2705 22.9864 31.1797 23.0284C30.7895 23.209 30.6196 23.6718 30.8002 24.0619C30.9318 24.3462 31.2132 24.5136 31.5073 24.5136C31.6167 24.5136 31.7279 24.4904 31.8338 24.4415C31.9778 24.3748 32.1193 24.2993 32.2546 24.2169C32.6219 23.9933 32.7383 23.5144 32.5147 23.1471Z" fill="white"/>
<path d="M20.7776 27.8208C20.4149 27.5902 19.9337 27.6974 19.703 28.0602L19.4942 28.3887C19.2635 28.7516 19.3706 29.2327 19.7335 29.4634C19.863 29.5458 20.0075 29.585 20.1504 29.585C20.4078 29.585 20.6598 29.4574 20.8081 29.2241L21.017 28.8956C21.2476 28.5327 21.1405 28.0516 20.7776 27.8208Z" fill="white"/>
<path d="M22.6565 24.8648C22.2938 24.6342 21.8126 24.7412 21.5819 25.104L21.3731 25.4325C21.1424 25.7953 21.2495 26.2765 21.6124 26.5071C21.7419 26.5895 21.8865 26.6288 22.0294 26.6288C22.2868 26.6288 22.5387 26.5012 22.6871 26.2679L22.8959 25.9394C23.1265 25.5765 23.0193 25.0954 22.6565 24.8648Z" fill="white"/>
<path d="M19.1496 31.0604C18.9658 30.6716 18.5018 30.5054 18.1131 30.689L17.7611 30.8553C17.3723 31.039 17.2061 31.503 17.3896 31.8918C17.5226 32.1731 17.8023 32.3379 18.0941 32.3379C18.2055 32.3379 18.3187 32.3138 18.4262 32.2631L18.7782 32.0968C19.1669 31.9132 19.3332 31.4492 19.1496 31.0604Z" fill="white"/>
<path d="M24.9348 23.2705H24.5456C24.1156 23.2705 23.7671 23.6191 23.7671 24.049C23.7671 24.4789 24.1156 24.8276 24.5456 24.8276H24.9348C25.3648 24.8276 25.7134 24.4789 25.7134 24.049C25.7134 23.6191 25.3648 23.2705 24.9348 23.2705Z" fill="white"/>
</g>
<defs>
<clipPath id="clip0_16_1984">
<rect width="39.8607" height="39.8607" fill="white" transform="translate(0.156708 0.0693359)"/>
</clipPath>
</defs>
</svg>
