<svg width="48" height="48" viewBox="0 0 48 48" fill="none" xmlns="http://www.w3.org/2000/svg">
<g clip-path="url(#clip0_16_582)">
<mask id="mask0_16_582" style="mask-type:luminance" maskUnits="userSpaceOnUse" x="0" y="0" width="48" height="48">
<path d="M0 0H48V48H0V0Z" fill="white"/>
</mask>
<g mask="url(#mask0_16_582)">
<path fill-rule="evenodd" clip-rule="evenodd" d="M47.4142 10.5861C48.1952 11.3671 48.1952 12.6335 47.4142 13.4145L28.4142 32.4145C27.6332 33.1955 26.3668 33.1955 25.5858 32.4145L17 23.8287L3.41422 37.4145C2.63316 38.1955 1.36683 38.1955 0.585786 37.4145C-0.195262 36.6335 -0.195262 35.3671 0.585786 34.5861L15.5858 19.5861C16.3668 18.805 17.6332 18.805 18.4142 19.5861L27 28.1719L44.5858 10.5861C45.3668 9.80505 46.6332 9.80505 47.4142 10.5861Z" fill="#166D00"/>
<path fill-rule="evenodd" clip-rule="evenodd" d="M32 12.0003C32 10.8957 32.8954 10.0003 34 10.0003H46C47.1046 10.0003 48 10.8957 48 12.0003V24.0003C48 25.1049 47.1046 26.0003 46 26.0003C44.8954 26.0003 44 25.1049 44 24.0003V14.0003H34C32.8954 14.0003 32 13.1049 32 12.0003Z" fill="#166D00"/>
</g>
</g>
<defs>
<clipPath id="clip0_16_582">
<rect width="48" height="48" fill="white"/>
</clipPath>
</defs>
</svg>
