<svg width="48" height="48" viewBox="0 0 48 48" fill="none" xmlns="http://www.w3.org/2000/svg">
<path d="M40.9688 25.1392H36.2702C35.6307 25.1392 35.0116 25.2266 34.4224 25.3873C33.2601 23.1024 30.8871 21.5325 28.1527 21.5325H19.8473C17.1129 21.5325 14.7399 23.1024 13.5776 25.3873C12.9884 25.2266 12.3693 25.1392 11.7298 25.1392H7.03125C3.15422 25.1392 0 28.2934 0 32.1705V39.6815C0 42.0078 1.89253 43.9003 4.21875 43.9003H43.7812C46.1075 43.9003 48 42.0078 48 39.6815V32.1705C48 28.2934 44.8458 25.1392 40.9688 25.1392ZM12.8161 28.5639V41.0879H4.21875C3.44334 41.0879 2.8125 40.457 2.8125 39.6816V32.1706C2.8125 29.8443 4.70503 27.9518 7.03125 27.9518H11.7298C12.1116 27.9518 12.4812 28.0037 12.8332 28.0992C12.823 28.253 12.8161 28.4077 12.8161 28.5639ZM32.3714 41.0879H15.6286V28.5638C15.6286 26.2376 17.5211 24.3451 19.8473 24.3451H28.1527C30.4789 24.3451 32.3714 26.2376 32.3714 28.5638V41.0879ZM45.1875 39.6816C45.1875 40.457 44.5567 41.0879 43.7812 41.0879H35.1839V28.5638C35.1839 28.4075 35.177 28.2528 35.1668 28.0991C35.5188 28.0037 35.8884 27.9517 36.2702 27.9517H40.9688C43.295 27.9517 45.1875 29.8443 45.1875 32.1705V39.6816Z" fill="#D47F00"/>
<path d="M9.38087 11.8594C5.93566 11.8594 3.13281 14.6622 3.13281 18.1074C3.13272 21.5527 5.93566 24.3555 9.38087 24.3555C12.826 24.3555 15.6289 21.5527 15.6289 18.1074C15.6289 14.6622 12.8261 11.8594 9.38087 11.8594ZM9.38078 21.543C7.48637 21.543 5.94522 20.0018 5.94522 18.1074C5.94522 16.213 7.48637 14.6719 9.38078 14.6719C11.2752 14.6719 12.8163 16.213 12.8163 18.1074C12.8163 20.0018 11.2752 21.543 9.38078 21.543Z" fill="#D47F00"/>
<path d="M24.0006 4.09985C19.3979 4.09985 15.6533 7.84442 15.6533 12.4472C15.6533 17.0499 19.3979 20.7945 24.0006 20.7945C28.6034 20.7945 32.3479 17.0499 32.3479 12.4472C32.3479 7.84451 28.6034 4.09985 24.0006 4.09985ZM24.0006 17.982C20.9487 17.982 18.4658 15.4991 18.4658 12.4472C18.4658 9.39532 20.9487 6.91235 24.0006 6.91235C27.0526 6.91235 29.5354 9.39523 29.5354 12.4472C29.5354 15.4991 27.0526 17.982 24.0006 17.982Z" fill="#D47F00"/>
<path d="M38.6194 11.8594C35.1743 11.8594 32.3713 14.6622 32.3713 18.1074C32.3714 21.5527 35.1743 24.3555 38.6194 24.3555C42.0646 24.3555 44.8675 21.5527 44.8675 18.1074C44.8675 14.6622 42.0646 11.8594 38.6194 11.8594ZM38.6194 21.543C36.7251 21.543 35.1838 20.0018 35.1838 18.1074C35.1839 16.213 36.7251 14.6719 38.6194 14.6719C40.5138 14.6719 42.055 16.213 42.055 18.1074C42.055 20.0018 40.5138 21.543 38.6194 21.543Z" fill="#D47F00"/>
</svg>
