<svg width="81" height="110" viewBox="0 0 81 110" fill="none" xmlns="http://www.w3.org/2000/svg">
<path d="M42.7802 109.06L79.4448 76.0613C80.2221 75.3574 80.6621 74.3747 80.6621 73.3335L80.6621 51.3347C80.6621 49.8901 79.8115 48.5775 78.4916 47.9835C77.1643 47.3969 75.6171 47.6389 74.5464 48.6068L40.331 79.3978L6.12282 48.6068C5.04488 47.6389 3.49763 47.3895 2.1777 47.9835C0.850436 48.5775 -0.000184633 49.8901 -0.000184696 51.3347L-0.000185658 73.3335C-0.000185704 74.3747 0.447123 75.3573 1.20975 76.0613L37.8744 109.06C39.2677 110.313 41.3942 110.313 42.7802 109.06Z" fill="#B20000"/>
<path d="M42.7802 61.3955L79.4448 28.3972C80.2221 27.6933 80.6621 26.7107 80.6621 25.6694L80.6621 3.67059C80.6621 2.226 79.8115 0.913407 78.4916 0.319439C77.1643 -0.267196 75.6171 -0.0252089 74.5464 0.942739L40.331 31.7337L6.12282 0.942736C5.04488 -0.0252119 3.49763 -0.274532 2.1777 0.319436C0.850436 0.913404 -0.000184633 2.226 -0.000184696 3.67059L-0.000185658 25.6694C-0.000185704 26.7107 0.447123 27.6933 1.20975 28.3972L37.8744 61.3955C39.2677 62.6494 41.3942 62.6494 42.7802 61.3955Z" fill="#B20000"/>
</svg>
