<svg width="48" height="48" viewBox="0 0 48 48" fill="none" xmlns="http://www.w3.org/2000/svg">
<path d="M24 48C37.2548 48 48 37.2548 48 24C48 10.7452 37.2548 0 24 0C10.7452 0 0 10.7452 0 24C0 37.2548 10.7452 48 24 48Z" fill="url(#paint0_linear_16_822)"/>
<path d="M29.0988 10.6719H18.9122C14.3682 10.6719 10.6775 14.3625 10.6775 18.9065V29.0932C10.6775 33.6372 14.3682 37.3279 18.9122 37.3279H29.0988C33.6428 37.3279 37.3335 33.6372 37.3335 29.0932V18.9065C37.3335 14.3625 33.6428 10.6719 29.0988 10.6719ZM34.3575 29.1039C34.3575 32.0052 32.0002 34.3732 29.0882 34.3732H18.9015C16.0002 34.3732 13.6322 32.0159 13.6322 29.1039V18.9172C13.6322 16.0159 15.9895 13.6479 18.9015 13.6479H29.0882C31.9895 13.6479 34.3575 16.0052 34.3575 18.9172V29.1039Z" fill="white"/>
<path d="M23.9998 17.1895C20.2452 17.1895 17.1838 20.2508 17.1838 24.0055C17.1838 27.7601 20.2452 30.8215 23.9998 30.8215C27.7545 30.8215 30.8158 27.7601 30.8158 24.0055C30.8158 20.2508 27.7545 17.1895 23.9998 17.1895ZM23.9998 28.1441C21.7172 28.1441 19.8612 26.2881 19.8612 24.0055C19.8612 21.7228 21.7172 19.8668 23.9998 19.8668C26.2825 19.8668 28.1385 21.7228 28.1385 24.0055C28.1385 26.2881 26.2825 28.1441 23.9998 28.1441Z" fill="white"/>
<path d="M31.3362 17.9369C31.9642 17.8351 32.3907 17.2435 32.2889 16.6156C32.1871 15.9876 31.5956 15.5611 30.9676 15.6628C30.3396 15.7646 29.9131 16.3562 30.0149 16.9842C30.1167 17.6122 30.7083 18.0387 31.3362 17.9369Z" fill="white"/>
<defs>
<linearGradient id="paint0_linear_16_822" x1="5.72576" y1="42.2742" x2="39.8324" y2="8.16757" gradientUnits="userSpaceOnUse">
<stop stop-color="#FEE411"/>
<stop offset="0.0518459" stop-color="#FEDB16"/>
<stop offset="0.1381" stop-color="#FEC125"/>
<stop offset="0.2481" stop-color="#FE983D"/>
<stop offset="0.3762" stop-color="#FE5F5E"/>
<stop offset="0.5" stop-color="#FE2181"/>
<stop offset="1" stop-color="#9000DC"/>
</linearGradient>
</defs>
</svg>
