<svg width="48" height="48" viewBox="0 0 48 48" fill="none" xmlns="http://www.w3.org/2000/svg">
<g clip-path="url(#clip0_16_565)">
<path d="M36.75 27.375H29.625V23.3438C29.625 22.5196 29.625 21.1406 28.9084 19.9161C28.0185 18.3958 26.3671 17.625 24 17.625C23.7016 17.625 23.4155 17.7435 23.2045 17.9545C22.9935 18.1655 22.875 18.4516 22.875 18.75V24.525L20.861 27.7978L18.375 29.4217V28.5C18.375 28.2016 18.2565 27.9155 18.0455 27.7045C17.8345 27.4935 17.5484 27.375 17.25 27.375H9.75C9.45163 27.375 9.16548 27.4935 8.9545 27.7045C8.74353 27.9155 8.625 28.2016 8.625 28.5V46.5C8.625 46.7984 8.74353 47.0845 8.9545 47.2955C9.16548 47.5065 9.45163 47.625 9.75 47.625H17.25C17.4432 47.625 17.6331 47.5751 17.8014 47.4802C17.9696 47.3853 18.1106 47.2486 18.2106 47.0833C18.8314 47.4388 19.5346 47.6256 20.25 47.625H35.25C35.8578 47.6255 36.4545 47.4616 36.9769 47.1508C37.4993 46.84 37.9279 46.3938 38.2176 45.8594C38.5072 45.325 38.647 44.7223 38.6222 44.1149C38.5974 43.5076 38.4089 42.9182 38.0767 42.4092C38.1856 42.3242 38.2893 42.2328 38.3873 42.1355C38.9346 41.5885 39.2769 40.8699 39.3569 40.1003C39.4369 39.3307 39.2497 38.5571 38.8267 37.9092C38.9356 37.8242 39.0393 37.7328 39.1373 37.6355C39.7472 37.0258 40.1002 36.2056 40.1237 35.3436C40.1473 34.4815 39.8396 33.6433 39.2639 33.0012C39.6985 32.5157 39.9834 31.9148 40.084 31.271C40.1846 30.6272 40.0966 29.9681 39.8308 29.3732C39.565 28.7783 39.1326 28.273 38.5859 27.9184C38.0392 27.5639 37.4016 27.3751 36.75 27.375ZM16.125 45.375H10.875V29.625H16.125V45.375ZM36.0469 45.0445C35.9424 45.1495 35.8183 45.2328 35.6815 45.2895C35.5447 45.3462 35.3981 45.3753 35.25 45.375H20.25C19.7529 45.3744 19.2763 45.1767 18.9248 44.8252C18.5733 44.4737 18.3756 43.9971 18.375 43.5V32.1094L22.4589 29.4424C22.5876 29.3574 22.6976 29.2472 22.7824 29.1184C22.8672 28.9897 22.925 28.8451 22.9522 28.6933L24.9585 25.4338C25.0676 25.2563 25.1252 25.0521 25.125 24.8438V19.9594C27.1855 20.3099 27.375 21.7047 27.375 23.3438V28.5C27.375 28.7984 27.4935 29.0845 27.7045 29.2955C27.9155 29.5065 28.2016 29.625 28.5 29.625H36.75C37.0484 29.625 37.3345 29.7435 37.5455 29.9545C37.7565 30.1655 37.875 30.4516 37.875 30.75C37.875 31.0484 37.7565 31.3345 37.5455 31.5455C37.3345 31.7565 37.0484 31.875 36.75 31.875H34.5C34.2016 31.875 33.9155 31.9935 33.7045 32.2045C33.4935 32.4155 33.375 32.7016 33.375 33C33.375 33.2984 33.4935 33.5845 33.7045 33.7955C33.9155 34.0065 34.2016 34.125 34.5 34.125H36.75C37.0484 34.125 37.3345 34.2435 37.5455 34.4545C37.7565 34.6655 37.875 34.9516 37.875 35.25C37.875 35.5484 37.7565 35.8345 37.5455 36.0455C37.3345 36.2565 37.0484 36.375 36.75 36.375H34.5C34.2016 36.375 33.9155 36.4935 33.7045 36.7045C33.4935 36.9155 33.375 37.2016 33.375 37.5C33.375 37.7984 33.4935 38.0845 33.7045 38.2955C33.9155 38.5065 34.2016 38.625 34.5 38.625H36C36.2984 38.625 36.5845 38.7435 36.7955 38.9545C37.0065 39.1655 37.125 39.4516 37.125 39.75C37.125 40.0484 37.0065 40.3345 36.7955 40.5455C36.5845 40.7565 36.2984 40.875 36 40.875H34.5C34.2016 40.875 33.9155 40.9935 33.7045 41.2045C33.4935 41.4155 33.375 41.7016 33.375 42C33.375 42.2984 33.4935 42.5845 33.7045 42.7955C33.9155 43.0065 34.2016 43.125 34.5 43.125H35.25C35.4724 43.1249 35.6899 43.1908 35.8749 43.3142C36.0599 43.4377 36.2042 43.6132 36.2894 43.8187C36.3747 44.0241 36.3972 44.2502 36.354 44.4684C36.3108 44.6866 36.204 44.8871 36.0469 45.0445Z" fill="#B11F24"/>
<path d="M13.5 44.7188C14.1213 44.7188 14.625 44.2151 14.625 43.5938C14.625 42.9724 14.1213 42.4688 13.5 42.4688C12.8787 42.4688 12.375 42.9724 12.375 43.5938C12.375 44.2151 12.8787 44.7188 13.5 44.7188Z" fill="#B11F24"/>
<path d="M19.4684 9.97732L18.784 13.9665C18.7485 14.1734 18.7717 14.3861 18.8508 14.5805C18.9299 14.7749 19.0618 14.9434 19.2316 15.0668C19.4014 15.1901 19.6024 15.2635 19.8118 15.2786C20.0212 15.2938 20.2306 15.25 20.4164 15.1523L23.9989 13.269L27.5813 15.1523C28.3662 15.5992 29.396 14.8523 29.2137 13.9665L28.5293 9.97732L31.4277 7.15226C31.578 7.00573 31.6843 6.82008 31.7346 6.61629C31.7849 6.4125 31.7772 6.19869 31.7123 5.99906C31.6475 5.79942 31.5281 5.62191 31.3676 5.4866C31.2071 5.35129 31.012 5.26358 30.8042 5.23338L26.799 4.65138L25.0078 1.02223C24.9149 0.833976 24.7712 0.675475 24.5929 0.564646C24.4146 0.453816 24.2089 0.395081 23.9989 0.395081C23.789 0.395081 23.5833 0.453816 23.405 0.564646C23.2267 0.675475 23.083 0.833976 22.9901 1.02223L21.1989 4.65138L17.1936 5.23338C16.9859 5.26358 16.7908 5.35129 16.6303 5.4866C16.4698 5.62191 16.3504 5.79942 16.2855 5.99906C16.2207 6.19869 16.2129 6.4125 16.2633 6.61629C16.3136 6.82008 16.4199 7.00573 16.5702 7.15226L19.4684 9.97732ZM22.1077 6.79291C22.2882 6.76669 22.4596 6.69697 22.6072 6.58976C22.7547 6.48256 22.874 6.34109 22.9547 6.17754L23.9989 4.06179L25.0431 6.17754C25.1238 6.34109 25.2431 6.48256 25.3907 6.58976C25.5382 6.69697 25.7097 6.76669 25.8902 6.79291L28.2245 7.13219L26.5354 8.77901C26.4048 8.90632 26.3071 9.06348 26.2508 9.23694C26.1944 9.4104 26.1811 9.59496 26.2119 9.77473L26.6107 12.0997L24.5224 11.002C24.361 10.9171 24.1813 10.8728 23.9989 10.8728C23.8165 10.8728 23.6369 10.9171 23.4754 11.002L21.3872 12.0997L21.786 9.77473C21.8168 9.59496 21.8034 9.4104 21.7471 9.23694C21.6907 9.06348 21.593 8.90632 21.4624 8.77901L19.773 7.13219L22.1077 6.79291Z" fill="#B11F24"/>
<path d="M47.1598 17.0993L43.9218 14.6712L44.0863 10.6271C44.0949 10.4173 44.0446 10.2093 43.9411 10.0266C43.8376 9.84395 43.685 9.69388 43.5006 9.59341C43.3163 9.49293 43.1074 9.44606 42.8978 9.45809C42.6882 9.47012 42.4861 9.54057 42.3145 9.66147L39.0049 11.9907L35.2096 10.5844C35.0128 10.5115 34.7995 10.4951 34.5938 10.5371C34.3882 10.5791 34.1984 10.6778 34.0459 10.822C33.8934 10.9662 33.7842 11.1503 33.7309 11.3533C33.6775 11.5562 33.6819 11.7701 33.7437 11.9707L34.9362 15.8385L32.4261 19.0135C32.2959 19.1782 32.2144 19.376 32.1907 19.5846C32.1671 19.7932 32.2023 20.0042 32.2924 20.1938C32.3824 20.3834 32.5237 20.5441 32.7003 20.6576C32.8769 20.7711 33.0817 20.8329 33.2916 20.8361L37.3384 20.8971L39.5824 24.2656C40.0618 25.0355 41.3183 24.8694 41.5832 24.0056L42.8919 20.1756L46.7888 19.0824C46.9909 19.0257 47.1731 18.9136 47.3148 18.7587C47.4565 18.6039 47.5521 18.4125 47.5907 18.2061C47.6293 17.9998 47.6094 17.7868 47.5333 17.5912C47.4571 17.3956 47.3278 17.2253 47.1598 17.0993ZM41.7147 18.1688C41.539 18.2181 41.378 18.3093 41.2455 18.4346C41.113 18.56 41.0129 18.7157 40.954 18.8883L40.191 21.1211L38.883 19.1576C38.7819 19.0058 38.6454 18.8808 38.4853 18.7935C38.3252 18.7062 38.1462 18.6591 37.9638 18.6563L35.6048 18.6207L37.068 16.77C37.1811 16.6269 37.2578 16.4584 37.2913 16.2791C37.3248 16.0998 37.3143 15.9151 37.2605 15.7408L36.5654 13.4863L38.7779 14.306C38.949 14.3694 39.1329 14.3902 39.3138 14.3667C39.4947 14.3432 39.6671 14.276 39.8163 14.171L41.7457 12.8133L41.6498 15.1706C41.6424 15.3528 41.6794 15.5342 41.7576 15.6989C41.8359 15.8637 41.953 16.0069 42.0989 16.1163L43.9865 17.532L41.7147 18.1688Z" fill="#B11F24"/>
<path d="M14.7087 20.8361C15.613 20.8519 16.1579 19.7043 15.5742 19.0135L13.0641 15.8385L14.2566 11.9708C14.3184 11.7702 14.3229 11.5563 14.2695 11.3532C14.2161 11.1502 14.107 10.9662 13.9545 10.822C13.802 10.6777 13.6122 10.579 13.4065 10.5371C13.2008 10.4951 12.9875 10.5115 12.7907 10.5844L8.9954 11.9906L5.68602 9.66141C5.51436 9.54051 5.31229 9.47005 5.10266 9.45802C4.89304 9.446 4.68424 9.49287 4.49987 9.59334C4.3155 9.69382 4.16293 9.84388 4.05942 10.0266C3.95591 10.2092 3.90559 10.4172 3.91415 10.627L4.07868 14.6711L0.840647 17.0993C0.672718 17.2252 0.543373 17.3956 0.467237 17.5912C0.3911 17.7868 0.37121 17.9998 0.409815 18.2062C0.44842 18.4125 0.543979 18.6039 0.685689 18.7588C0.827399 18.9136 1.00961 19.0257 1.21171 19.0824L5.10862 20.1757L6.41708 24.0056C6.68202 24.8696 7.93855 25.0354 8.4179 24.2656L10.6619 20.8972L14.7087 20.8361ZM9.11718 19.158L7.80927 21.121L7.04643 18.8886C6.98745 18.716 6.8874 18.5603 6.75488 18.435C6.62236 18.3096 6.46136 18.2184 6.28574 18.1691L4.01408 17.5316L5.90165 16.116C6.04757 16.0066 6.1647 15.8633 6.24295 15.6986C6.3212 15.5338 6.35821 15.3525 6.3508 15.1703L6.2549 12.8129L8.18427 14.1711C8.33344 14.2761 8.5059 14.3432 8.6868 14.3667C8.86769 14.3903 9.05159 14.3694 9.22265 14.3061L11.4351 13.4863L10.7398 15.7406C10.686 15.9149 10.6755 16.0997 10.709 16.279C10.7425 16.4583 10.8192 16.6267 10.9323 16.7698L12.3955 18.6205L10.0365 18.6562C9.85409 18.6589 9.6751 18.706 9.51494 18.7934C9.35479 18.8807 9.21828 19.0057 9.11718 19.1575V19.158Z" fill="#B11F24"/>
</g>
<defs>
<clipPath id="clip0_16_565">
<rect width="48" height="48" fill="white"/>
</clipPath>
</defs>
</svg>
