<svg width="48" height="48" viewBox="0 0 48 48" fill="none" xmlns="http://www.w3.org/2000/svg">
<g clip-path="url(#clip0_16_828)">
<path d="M24.002 47.9971C37.2568 47.9971 48.002 37.2519 48.002 23.9971C48.002 10.7422 37.2568 -0.00292969 24.002 -0.00292969C10.7471 -0.00292969 0.00195312 10.7422 0.00195312 23.9971C0.00195312 37.2519 10.7471 47.9971 24.002 47.9971Z" fill="#007AB9"/>
<path d="M38.3434 25.9292V35.8239H32.6068V26.5923C32.6068 24.2744 31.7785 22.6914 29.7014 22.6914C28.1163 22.6914 27.1747 23.7572 26.7589 24.7891C26.6078 25.1578 26.5689 25.67 26.5689 26.1872V35.8235H20.8318C20.8318 35.8235 20.9088 20.1883 20.8318 18.5698H26.5693V21.0148C26.5578 21.0341 26.5415 21.0529 26.5313 21.0713H26.5693V21.0148C27.3317 19.8417 28.6913 18.1647 31.7396 18.1647C35.5138 18.1647 38.3434 20.6306 38.3434 25.9292ZM14.8303 10.2529C12.8679 10.2529 11.584 11.5411 11.584 13.2336C11.584 14.8901 12.8307 16.2155 14.755 16.2155H14.7922C16.7932 16.2155 18.0373 14.8901 18.0373 13.2336C17.9992 11.5411 16.7932 10.2529 14.8303 10.2529ZM11.925 35.8239H17.6599V18.5698H11.925V35.8239Z" fill="#F1F2F2"/>
</g>
<defs>
<clipPath id="clip0_16_828">
<rect width="48" height="48" fill="white"/>
</clipPath>
</defs>
</svg>
