<svg width="64" height="64" viewBox="0 0 64 64" fill="none" xmlns="http://www.w3.org/2000/svg">
<g clip-path="url(#clip0_16_337)">
<path fill-rule="evenodd" clip-rule="evenodd" d="M32 0C14.35 0 0 14.35 0 32C0 49.65 14.35 64 32 64C49.65 64 64 49.65 64 32C64 14.35 49.65 0 32 0Z" fill="#B11F24"/>
<path d="M32.8196 47.3977C31.3234 47.3883 29.8793 47.1373 28.4872 46.6449C27.1046 46.1525 25.8641 45.3523 24.7656 44.2443C23.6671 43.1364 22.7959 41.6686 22.152 39.8409C21.5175 38.0133 21.2003 35.7689 21.2003 33.108C21.2098 30.6648 21.4891 28.482 22.0384 26.5597C22.5971 24.6278 23.3925 22.9896 24.4247 21.6449C25.4664 20.3002 26.7116 19.2775 28.1605 18.5767C29.6094 17.8665 31.2334 17.5114 33.0327 17.5114C34.974 17.5114 36.688 17.8902 38.1747 18.6477C39.6615 19.3958 40.8546 20.4138 41.7543 21.7017C42.6634 22.9896 43.2126 24.4337 43.402 26.0341H37.3366C37.0999 25.0208 36.6027 24.2254 35.8452 23.6477C35.0876 23.0701 34.1501 22.7812 33.0327 22.7812C31.1387 22.7812 29.6993 23.6051 28.7145 25.2528C27.7391 26.9006 27.242 29.1402 27.223 31.9716H27.4219C27.8575 31.1098 28.4446 30.3759 29.1832 29.7699C29.9313 29.1544 30.7789 28.6856 31.7259 28.3636C32.6823 28.0322 33.6908 27.8665 34.7514 27.8665C36.4749 27.8665 38.009 28.2737 39.3537 29.0881C40.6984 29.893 41.759 31.0009 42.5355 32.4119C43.312 33.8229 43.7003 35.4375 43.7003 37.2557C43.7003 39.2254 43.241 40.9773 42.3224 42.5114C41.4134 44.0455 40.1397 45.2481 38.5014 46.1193C36.8726 46.9811 34.9787 47.4072 32.8196 47.3977ZM32.7912 42.5682C33.7382 42.5682 34.5857 42.3409 35.3338 41.8864C36.0819 41.4318 36.669 40.8163 37.0952 40.0398C37.5213 39.2633 37.7344 38.392 37.7344 37.4261C37.7344 36.4602 37.5213 35.5937 37.0952 34.8267C36.6785 34.0597 36.1009 33.4489 35.3622 32.9943C34.6236 32.5398 33.7808 32.3125 32.8338 32.3125C32.1236 32.3125 31.4654 32.4451 30.8594 32.7102C30.2628 32.9754 29.7372 33.3447 29.2827 33.8182C28.8376 34.2917 28.4872 34.8409 28.2315 35.4659C27.9759 36.0814 27.848 36.7396 27.848 37.4403C27.848 38.3778 28.0611 39.2348 28.4872 40.0114C28.9228 40.7879 29.5099 41.4081 30.2486 41.8722C30.9967 42.3362 31.8442 42.5682 32.7912 42.5682Z" fill="white"/>
</g>
<defs>
<clipPath id="clip0_16_337">
<rect width="64" height="64" fill="white"/>
</clipPath>
</defs>
</svg>
