<svg width="64" height="64" viewBox="0 0 64 64" fill="none" xmlns="http://www.w3.org/2000/svg">
<g clip-path="url(#clip0_16_331)">
<path fill-rule="evenodd" clip-rule="evenodd" d="M32 0C14.35 0 0 14.35 0 32C0 49.65 14.35 64 32 64C49.65 64 64 49.65 64 32C64 14.35 49.65 0 32 0Z" fill="#61ECFF"/>
<path d="M32.0923 47.3977C30.0848 47.3977 28.295 47.0284 26.723 46.2898C25.1605 45.5511 23.92 44.5331 23.0014 43.2358C22.0829 41.9384 21.6046 40.4517 21.5668 38.7756H27.5327C27.599 39.9025 28.0724 40.8163 28.9531 41.517C29.8338 42.2178 30.8802 42.5682 32.0923 42.5682C33.0582 42.5682 33.9105 42.3551 34.6491 41.929C35.3973 41.4934 35.9796 40.892 36.3963 40.125C36.8224 39.3485 37.0355 38.4583 37.0355 37.4545C37.0355 36.4318 36.8177 35.5322 36.3821 34.7557C35.956 33.9792 35.3641 33.3731 34.6065 32.9375C33.849 32.5019 32.9825 32.2794 32.0071 32.2699C31.1548 32.2699 30.3262 32.4451 29.5213 32.7955C28.7259 33.1458 28.1056 33.6241 27.6605 34.2301L22.1918 33.25L23.5696 17.9091H41.3537V22.9375H28.6406L27.8878 30.2244H28.0582C28.5696 29.5047 29.3414 28.9081 30.3736 28.4347C31.4058 27.9612 32.5611 27.7244 33.8395 27.7244C35.5914 27.7244 37.1539 28.1364 38.527 28.9602C39.9001 29.7841 40.9844 30.9157 41.7798 32.3551C42.5753 33.785 42.9683 35.4328 42.9588 37.2983C42.9683 39.2585 42.5137 41.0009 41.5952 42.5256C40.6861 44.0407 39.4124 45.2339 37.7741 46.1051C36.1454 46.9669 34.2514 47.3977 32.0923 47.3977Z" fill="white"/>
</g>
<defs>
<clipPath id="clip0_16_331">
<rect width="64" height="64" fill="white"/>
</clipPath>
</defs>
</svg>
