<svg width="64" height="64" viewBox="0 0 64 64" fill="none" xmlns="http://www.w3.org/2000/svg">
<g clip-path="url(#clip0_16_319)">
<path fill-rule="evenodd" clip-rule="evenodd" d="M32 0C14.35 0 0 14.35 0 32C0 49.65 14.35 64 32 64C49.65 64 64 49.65 64 32C64 14.35 49.65 0 32 0Z" fill="#A431FF"/>
<path d="M32.4272 47.3977C30.306 47.3977 28.4168 47.0331 26.7596 46.304C25.1119 45.5653 23.8098 44.5521 22.8533 43.2642C21.9064 41.9669 21.4187 40.4706 21.3903 38.7756H27.5835C27.6213 39.4858 27.8533 40.1108 28.2795 40.6506C28.7151 41.1809 29.2927 41.5928 30.0124 41.8864C30.7321 42.1799 31.5418 42.3267 32.4414 42.3267C33.3789 42.3267 34.2075 42.161 34.9272 41.8295C35.6469 41.4981 36.2103 41.0388 36.6175 40.4517C37.0247 39.8646 37.2283 39.1875 37.2283 38.4205C37.2283 37.6439 37.0105 36.9574 36.5749 36.3608C36.1488 35.7547 35.5333 35.2812 34.7283 34.9403C33.9329 34.5994 32.9859 34.429 31.8874 34.429H29.1744V29.9119H31.8874C32.8155 29.9119 33.6346 29.7509 34.3448 29.429C35.0645 29.107 35.6232 28.6619 36.021 28.0938C36.4187 27.5161 36.6175 26.8438 36.6175 26.0767C36.6175 25.3475 36.4424 24.7083 36.092 24.1591C35.7511 23.6004 35.2681 23.1648 34.6431 22.8523C34.0276 22.5398 33.3079 22.3835 32.484 22.3835C31.6507 22.3835 30.8884 22.535 30.1971 22.8381C29.5058 23.1316 28.9518 23.553 28.5352 24.1023C28.1185 24.6515 27.896 25.2955 27.8675 26.0341H21.9727C22.0011 24.358 22.4793 22.8807 23.4073 21.6023C24.3353 20.3239 25.5853 19.3248 27.1573 18.6051C28.7388 17.8759 30.5238 17.5114 32.5124 17.5114C34.52 17.5114 36.2766 17.8759 37.7823 18.6051C39.288 19.3343 40.4575 20.3191 41.2908 21.5597C42.1336 22.7907 42.5503 24.1733 42.5408 25.7074C42.5503 27.3362 42.0437 28.6951 41.021 29.7841C40.0077 30.8731 38.6867 31.5644 37.0579 31.858V32.0852C39.198 32.3598 40.8268 33.1032 41.9442 34.3153C43.0711 35.518 43.6299 37.0237 43.6204 38.8324C43.6299 40.4896 43.1516 41.9621 42.1857 43.25C41.2293 44.5379 39.9083 45.5511 38.2227 46.2898C36.5371 47.0284 34.6052 47.3977 32.4272 47.3977Z" fill="white"/>
</g>
<defs>
<clipPath id="clip0_16_319">
<rect width="64" height="64" fill="white"/>
</clipPath>
</defs>
</svg>
