<svg width="65" height="64" viewBox="0 0 65 64" fill="none" xmlns="http://www.w3.org/2000/svg">
<g clip-path="url(#clip0_16_313)">
<path fill-rule="evenodd" clip-rule="evenodd" d="M32.5 0C14.85 0 0.5 14.35 0.5 32C0.5 49.65 14.85 64 32.5 64C50.15 64 64.5 49.65 64.5 32C64.5 14.35 50.15 0 32.5 0Z" fill="#16BDE3"/>
<path d="M22.2603 47V42.5682L32.6154 32.9801C33.4961 32.1278 34.2347 31.3608 34.8313 30.679C35.4374 29.9972 35.8967 29.3295 36.2092 28.6761C36.5217 28.0133 36.6779 27.2983 36.6779 26.5312C36.6779 25.679 36.4838 24.9451 36.0955 24.3295C35.7073 23.7045 35.177 23.2263 34.5046 22.8949C33.8323 22.554 33.07 22.3835 32.2177 22.3835C31.3275 22.3835 30.551 22.5634 29.8881 22.9233C29.2253 23.2831 28.7139 23.7992 28.354 24.4716C27.9942 25.1439 27.8143 25.9441 27.8143 26.8722H21.9762C21.9762 24.9687 22.4071 23.3163 23.2688 21.9148C24.1306 20.5133 25.3379 19.429 26.891 18.6619C28.444 17.8949 30.2338 17.5114 32.2603 17.5114C34.3436 17.5114 36.1571 17.8807 37.7006 18.6193C39.2537 19.3485 40.4611 20.3617 41.3228 21.6591C42.1845 22.9564 42.6154 24.4432 42.6154 26.1193C42.6154 27.2178 42.3976 28.3021 41.962 29.3722C41.5359 30.4422 40.7736 31.6307 39.6751 32.9375C38.5766 34.2348 37.0283 35.7926 35.0302 37.6108L30.783 41.7727V41.9716H42.9989V47H22.2603Z" fill="white"/>
</g>
<defs>
<clipPath id="clip0_16_313">
<rect width="64" height="64" fill="white" transform="translate(0.5)"/>
</clipPath>
</defs>
</svg>
