<svg width="64" height="64" viewBox="0 0 64 64" fill="none" xmlns="http://www.w3.org/2000/svg">
<g clip-path="url(#clip0_16_349)">
<path fill-rule="evenodd" clip-rule="evenodd" d="M32 0C14.35 0 0 14.35 0 32C0 49.65 14.35 64 32 64C49.65 64 64 49.65 64 32C64 14.35 49.65 0 32 0Z" fill="#B11F88"/>
<path d="M32.4876 47.3977C30.3001 47.3977 28.354 47.0426 26.6495 46.3324C24.9544 45.6127 23.6239 44.6326 22.658 43.392C21.6921 42.1515 21.2092 40.7453 21.2092 39.1733C21.2092 37.9612 21.4838 36.8485 22.033 35.8352C22.5917 34.8125 23.3493 33.965 24.3058 33.2926C25.2622 32.6108 26.3323 32.1752 27.516 31.9858V31.7869C25.963 31.4744 24.7035 30.7216 23.7376 29.5284C22.7717 28.3258 22.2887 26.929 22.2887 25.3381C22.2887 23.8324 22.729 22.4924 23.6097 21.3182C24.4904 20.1345 25.6978 19.2064 27.2319 18.5341C28.7754 17.8523 30.5273 17.5114 32.4876 17.5114C34.4478 17.5114 36.195 17.8523 37.729 18.5341C39.2726 19.2159 40.4847 20.1487 41.3654 21.3324C42.2461 22.5066 42.6912 23.8419 42.7006 25.3381C42.6912 26.9384 42.1987 28.3352 41.2234 29.5284C40.248 30.7216 38.998 31.4744 37.4734 31.7869V31.9858C38.6381 32.1752 39.694 32.6108 40.641 33.2926C41.5974 33.965 42.355 34.8125 42.9137 35.8352C43.4819 36.8485 43.7707 37.9612 43.7802 39.1733C43.7707 40.7453 43.283 42.1515 42.3171 43.392C41.3512 44.6326 40.016 45.6127 38.3114 46.3324C36.6164 47.0426 34.6751 47.3977 32.4876 47.3977ZM32.4876 42.8807C33.463 42.8807 34.3152 42.7055 35.0444 42.3551C35.7736 41.9953 36.3417 41.5028 36.7489 40.8778C37.1656 40.2434 37.3739 39.5142 37.3739 38.6903C37.3739 37.8475 37.1609 37.1042 36.7347 36.4602C36.3086 35.8068 35.7309 35.2955 35.0018 34.9261C34.2726 34.5473 33.4345 34.358 32.4876 34.358C31.5501 34.358 30.712 34.5473 29.9734 34.9261C29.2347 35.2955 28.6523 35.8068 28.2262 36.4602C27.8095 37.1042 27.6012 37.8475 27.6012 38.6903C27.6012 39.5142 27.8048 40.2434 28.212 40.8778C28.6192 41.5028 29.1921 41.9953 29.9308 42.3551C30.6694 42.7055 31.5217 42.8807 32.4876 42.8807ZM32.4876 29.8835C33.302 29.8835 34.0264 29.7178 34.6609 29.3864C35.2953 29.0549 35.7925 28.5956 36.1523 28.0085C36.5122 27.4214 36.6921 26.7443 36.6921 25.9773C36.6921 25.2197 36.5122 24.5568 36.1523 23.9886C35.7925 23.411 35.3001 22.9612 34.6751 22.6392C34.0501 22.3078 33.3209 22.142 32.4876 22.142C31.6637 22.142 30.9345 22.3078 30.3001 22.6392C29.6656 22.9612 29.1684 23.411 28.8086 23.9886C28.4582 24.5568 28.283 25.2197 28.283 25.9773C28.283 26.7443 28.4629 27.4214 28.8228 28.0085C29.1826 28.5956 29.6798 29.0549 30.3143 29.3864C30.9487 29.7178 31.6732 29.8835 32.4876 29.8835Z" fill="white"/>
</g>
<defs>
<clipPath id="clip0_16_349">
<rect width="64" height="64" fill="white"/>
</clipPath>
</defs>
</svg>
