<svg width="48" height="48" viewBox="0 0 48 48" fill="none" xmlns="http://www.w3.org/2000/svg">
<path d="M40.5 8.99999C32.16 8.99999 25.005 3.38999 24.93 3.32999C24.6652 3.12073 24.3375 3.0069 24 3.0069C23.6625 3.0069 23.3348 3.12073 23.07 3.32999C22.995 3.38999 15.87 8.99999 7.5 8.99999C7.10218 8.99999 6.72064 9.15803 6.43934 9.43933C6.15804 9.72064 6 10.1022 6 10.5V24C6 34.065 10.065 39 23.385 44.865C23.5784 44.9519 23.788 44.9969 24 44.9969C24.212 44.9969 24.4216 44.9519 24.615 44.865C37.935 39 42 34.065 42 24V10.5C42 10.1022 41.842 9.72064 41.5607 9.43933C41.2794 9.15803 40.8978 8.99999 40.5 8.99999ZM39 24C39 31.77 36.9 36 24 41.85C11.1 36 9 31.77 9 24V12C14.4035 11.4486 19.5718 9.50532 24 6.35999C28.4282 9.50532 33.5965 11.4486 39 12V24Z" fill="#4BAE4F"/>
<path d="M20.5653 22.9345C20.4254 22.7947 20.2594 22.6837 20.0767 22.6081C19.8939 22.5324 19.6981 22.4934 19.5003 22.4934C19.3025 22.4934 19.1066 22.5324 18.9239 22.6081C18.7412 22.6837 18.5751 22.7947 18.4353 22.9345C18.2954 23.0744 18.1845 23.2404 18.1088 23.4232C18.0331 23.6059 17.9941 23.8018 17.9941 23.9995C17.9941 24.1973 18.0331 24.3932 18.1088 24.5759C18.1845 24.7587 18.2954 24.9247 18.4353 25.0645L21.4353 28.0645C21.5747 28.2051 21.7406 28.3167 21.9234 28.3929C22.1062 28.469 22.3023 28.5082 22.5003 28.5082C22.6983 28.5082 22.8944 28.469 23.0771 28.3929C23.2599 28.3167 23.4258 28.2051 23.5653 28.0645L29.5653 22.0645C29.7051 21.9247 29.8161 21.7587 29.8918 21.5759C29.9675 21.3932 30.0064 21.1973 30.0064 20.9995C30.0064 20.8018 29.9675 20.6059 29.8918 20.4232C29.8161 20.2404 29.7051 20.0744 29.5653 19.9345C29.4254 19.7947 29.2594 19.6837 29.0767 19.6081C28.8939 19.5324 28.6981 19.4934 28.5003 19.4934C28.3025 19.4934 28.1066 19.5324 27.9239 19.6081C27.7412 19.6837 27.5751 19.7947 27.4353 19.9345L22.5003 24.8845L20.5653 22.9345Z" fill="#4BAE4F"/>
<path d="M12 24C12 26.3734 12.7038 28.6935 14.0224 30.6668C15.3409 32.6402 17.2151 34.1783 19.4078 35.0866C21.6005 35.9948 24.0133 36.2324 26.3411 35.7694C28.6689 35.3064 30.8071 34.1635 32.4853 32.4853C34.1635 30.8071 35.3064 28.6689 35.7694 26.3411C36.2324 24.0133 35.9948 21.6005 35.0866 19.4078C34.1783 17.2151 32.6402 15.3409 30.6668 14.0224C28.6935 12.7038 26.3734 12 24 12C20.8174 12 17.7652 13.2643 15.5147 15.5147C13.2643 17.7652 12 20.8174 12 24ZM33 24C33 25.78 32.4722 27.5201 31.4832 29.0001C30.4943 30.4802 29.0887 31.6337 27.4442 32.3149C25.7996 32.9961 23.99 33.1743 22.2442 32.8271C20.4984 32.4798 18.8947 31.6226 17.636 30.364C16.3774 29.1053 15.5202 27.5016 15.1729 25.7558C14.8257 24.01 15.0039 22.2004 15.6851 20.5558C16.3663 18.9113 17.5198 17.5057 18.9999 16.5168C20.4799 15.5278 22.22 15 24 15C26.3869 15 28.6761 15.9482 30.364 17.636C32.0518 19.3239 33 21.6131 33 24Z" fill="#4BAE4F"/>
</svg>
