<svg width="48" height="48" viewBox="0 0 48 48" fill="none" xmlns="http://www.w3.org/2000/svg">
<g clip-path="url(#clip0_16_812)">
<path d="M23.998 48C37.2529 48 47.998 37.2548 47.998 24C47.998 10.7452 37.2529 0 23.998 0C10.7432 0 -0.00195312 10.7452 -0.00195312 24C-0.00195312 37.2548 10.7432 48 23.998 48Z" fill="#03A9F4"/>
<path d="M35.8807 26.6702C37.7092 18.4596 30.5123 10.9944 22.0649 12.4249C17.4765 9.57965 11.3692 12.7944 11.3692 18.2544C11.3666 19.4764 11.6939 20.6765 12.3165 21.7281C10.6176 29.9607 17.8744 37.3154 26.3155 35.7839C32.2934 38.9481 38.8902 32.6544 35.8807 26.6702ZM27.8502 31.6218C25.6397 32.5344 21.9828 32.5407 19.7755 31.3849C16.6176 29.7049 16.0681 25.9249 18.7839 25.9249C20.8302 25.9249 20.1828 28.3123 22.2576 29.2849C23.2049 29.7239 25.2449 29.7681 26.4292 28.9691C27.6134 28.1702 27.4744 26.9544 26.8428 26.3639C25.1565 24.807 20.3344 25.4165 18.1271 22.7007C17.6127 22.0085 17.3384 21.1672 17.3458 20.3049C17.3532 19.4425 17.6419 18.6061 18.1681 17.9228C20.2207 15.2797 26.2428 15.1186 28.8355 17.1144C31.226 18.9649 30.5818 21.4218 28.6492 21.4218C26.3281 21.4218 27.5502 18.3839 23.8018 18.3839C21.086 18.3839 20.0123 20.3165 21.9292 21.2575C24.5313 22.546 31.1376 22.107 31.1376 27.1596C31.1376 29.2533 29.8492 30.8165 27.8502 31.6312V31.6218Z" fill="white"/>
</g>
<defs>
<clipPath id="clip0_16_812">
<rect width="48" height="48" fill="white"/>
</clipPath>
</defs>
</svg>
