<svg width="48" height="48" viewBox="0 0 48 48" fill="none" xmlns="http://www.w3.org/2000/svg">
<path d="M42.7366 17.2156H38.4719C37.6574 17.2156 36.9949 17.8781 36.9949 18.6921V22.4584H33.0073C32.1929 22.4584 31.5303 23.1209 31.5303 23.9354V27.8769H27.6812C26.8667 27.8769 26.2041 28.5395 26.2041 29.3539V33.5168H25.2551C25.493 32.9762 25.5685 32.372 25.4514 31.7824L24.1561 25.2528C23.9632 24.2811 23.2533 23.5022 22.3031 23.2196L19.2062 22.2997C18.7979 22.1785 18.5545 21.7719 18.6397 21.3545L19.2022 18.6106L19.387 18.9432C19.8494 19.7757 20.7283 20.2999 21.6807 20.3116L27.2034 20.3801C28.6045 20.4003 29.7504 19.2669 29.7504 17.8642C29.7504 16.5102 28.6493 15.382 27.2958 15.3496L23.5417 15.2585C23.2699 15.2518 23.0202 15.1112 22.8742 14.8817L20.9492 11.8633C20.7972 11.6248 20.6258 11.405 20.4493 11.1912C22.5051 10.6665 24.0362 8.81842 24.0362 6.60605C24.0362 3.9815 21.9011 1.84644 19.277 1.84644C16.6588 1.84644 14.5287 3.9815 14.5287 6.60605C14.5287 7.39543 14.7407 8.12921 15.083 8.78484C14.8428 8.79582 14.6024 8.8067 14.3614 8.84523C14.178 8.87498 14.0739 8.89887 14.0495 8.90473L8.01574 10.4187C7.09131 10.6504 6.35754 11.3643 6.10017 12.2824L4.53437 17.875C4.14732 19.2552 5.00968 20.6793 6.41343 20.9759C7.71511 21.2473 9.00011 20.4563 9.33275 19.1658L10.3009 15.414C10.3784 15.1143 10.6141 14.8867 10.9157 14.8204L11.5661 14.678L10.1882 21.1729L7.99816 29.5329C7.9621 29.6708 7.89044 29.797 7.79038 29.8984L4.64074 33.1003C3.5536 34.2055 3.49636 35.989 4.51093 37.1609C5.63325 38.4578 7.60725 38.5478 8.84416 37.3673L13.0043 33.3956C13.378 33.039 13.6385 32.5843 13.7579 32.0799L14.6454 28.3056C14.6959 28.0924 14.8261 27.9116 15.0127 27.7972C15.1998 27.6827 15.4193 27.6484 15.632 27.6998L18.3395 28.3579C18.6442 28.4318 18.8822 28.6783 18.9453 28.9862L19.7548 32.9322C19.8824 33.5529 20.2095 34.0842 20.6501 34.4868C20.5916 34.6456 20.5548 34.8149 20.5548 34.9938V38.9169H16.6227C15.8083 38.9169 15.1457 39.5795 15.1457 40.3939V44.6771C15.1457 45.4911 15.8083 46.1537 16.6227 46.1537H42.7366C43.5506 46.1537 44.2132 45.4911 44.2132 44.6771V18.6921C44.2132 17.8781 43.5506 17.2156 42.7366 17.2156ZM42.367 35.3634V38.9196H22.401V35.363C26.3043 35.3631 41.7054 35.3634 42.367 35.3634ZM42.367 19.0617V22.4557H38.841V19.0617H42.367ZM42.367 24.3018V27.8738H33.3765V24.3045C33.4691 24.3045 42.9703 24.3016 42.367 24.3018ZM42.367 29.7199V33.5173H28.0503V29.7231C29.5145 29.7228 22.7468 29.7243 42.367 29.7199ZM19.277 3.69259C20.8834 3.69259 22.19 4.99968 22.19 6.60605C22.19 8.20611 20.8834 9.50824 19.277 9.50824C17.6769 9.50824 16.3748 8.20611 16.3748 6.60605C16.3748 4.99968 17.6769 3.69259 19.277 3.69259ZM18.7754 26.564L16.0683 25.9059C15.3738 25.7365 14.6562 25.8505 14.0473 26.2237C13.4384 26.5973 13.0124 27.1864 12.8484 27.8823L11.9609 31.6562C11.9244 31.8108 11.8446 31.9506 11.7297 32.0601L7.56952 36.0318C7.09744 36.4817 6.34117 36.4545 5.90681 35.9525C5.51784 35.5031 5.53948 34.8194 5.95684 34.3957L9.10603 31.1933C9.43145 30.8634 9.66583 30.451 9.78392 30.0012L11.9839 21.5984L13.6687 13.6612C13.734 13.3547 13.6389 13.0356 13.4163 12.8147C13.2414 12.6412 13.007 12.5466 12.7659 12.5466C12.7001 12.5466 12.6338 12.5538 12.568 12.5682L10.5199 13.0176C9.53467 13.2339 8.76574 13.9749 8.51334 14.9521L7.54519 18.7043C7.46 19.036 7.13683 19.242 6.79474 19.1695C6.43311 19.0928 6.21221 18.7289 6.31201 18.3726L7.87782 12.7805C7.95669 12.4992 8.1816 12.2802 8.46466 12.209L14.4723 10.7013C14.4831 10.6991 14.5489 10.6851 14.6562 10.668C16.4952 10.3709 18.3562 11.2295 19.3924 12.8558L21.3174 15.8738C21.7943 16.6229 22.6092 17.0826 23.4971 17.1038L27.2512 17.1948C27.6113 17.2039 27.9043 17.504 27.9043 17.8642C27.9043 18.2268 27.5977 18.5594 27.2259 18.5339L21.7032 18.4654C21.4116 18.4618 21.1425 18.3014 21.0006 18.0463L19.6051 15.5344C19.4172 15.1968 19.035 15.0116 18.6582 15.0706C18.2764 15.1292 17.9717 15.419 17.8942 15.7976L16.8314 20.9845C16.5524 22.3475 17.3479 23.674 18.6812 24.0692L21.7772 24.9892C22.0683 25.0757 22.286 25.3146 22.3451 25.6125L23.6404 32.1421C23.7637 32.7621 23.3212 33.3557 22.6818 33.4046C22.1508 33.4465 21.6703 33.0823 21.5631 32.5608L20.7536 28.6148C20.5476 27.6106 19.771 26.8056 18.7754 26.564ZM16.9919 44.3075V40.7631C19.5865 40.7633 7.59278 40.7621 42.367 40.7658V44.3075H16.9919Z" fill="#4C68FF"/>
</svg>
