<svg width="48" height="48" viewBox="0 0 48 48" fill="none" xmlns="http://www.w3.org/2000/svg">
<g clip-path="url(#clip0_16_539)">
<path d="M47.7733 17.2592L40.0314 9.51732C39.92 9.40623 39.7775 9.33171 39.6226 9.30365L31.1066 7.75527C30.6859 7.67873 30.2828 7.95772 30.2063 8.3784C30.198 8.42388 30.1938 8.47004 30.1938 8.5163C30.1916 8.7623 30.1695 9.00772 30.128 9.25023L24.7745 7.91243V7.66469C26.8692 7.23715 28.2206 5.19242 27.7931 3.09776C27.3655 1.0031 25.3208 -0.348338 23.2261 0.079207C21.4241 0.447043 20.1298 2.032 20.1294 3.87118H21.6777C21.6777 2.58844 22.7176 1.54861 24.0003 1.54861C25.283 1.54861 26.3229 2.58844 26.3229 3.87118C26.3229 5.15391 25.283 6.19374 24.0003 6.19374C23.5728 6.19374 23.2261 6.54038 23.2261 6.96793V7.91166L17.8726 9.25023C17.8311 9.00772 17.809 8.7623 17.8068 8.5163C17.8069 8.28666 17.7051 8.06892 17.5289 7.92172C17.3536 7.7725 17.1199 7.71124 16.894 7.75527L8.37798 9.30365C8.22314 9.33171 8.0806 9.40623 7.96921 9.51732L0.227338 17.2592C-0.074885 17.5615 -0.074885 18.0516 0.227338 18.3539L6.42084 24.5474C6.72316 24.8496 7.21322 24.8496 7.51554 24.5474L9.29075 22.7722V27.871H3.87144C1.74 27.8648 0.00717882 29.5877 0.000985325 31.7192C-0.00259529 32.9502 0.581335 34.1091 1.57288 34.8387C-0.137401 36.0883 -0.510849 38.4878 0.738883 40.1981C0.972203 40.5174 1.25352 40.7988 1.57288 41.0321C-0.143788 42.2954 -0.511333 44.7112 0.751947 46.4279C1.48162 47.4193 2.64048 48.0032 3.87144 47.9998H31.7422C31.9475 47.9998 32.1444 47.9181 32.2895 47.7729L38.483 41.5794C38.6264 41.4336 38.7055 41.2366 38.7029 41.0321H38.7099V22.7722L40.4851 24.5474C40.7874 24.8496 41.2775 24.8496 41.5798 24.5474L47.7733 18.3539C48.0755 18.0516 48.0755 17.5614 47.7733 17.2592ZM24.0003 9.31371L29.6302 10.7212C28.4633 12.7102 26.3054 13.9051 24.0003 13.8388C21.6953 13.9051 19.5373 12.7102 18.3704 10.7212L24.0003 9.31371ZM1.54888 31.7419C1.54888 30.4592 2.58871 29.4194 3.87144 29.4194H20.9036C22.1863 29.4194 23.2261 30.4592 23.2261 31.7419C23.2261 33.0247 22.1863 34.0645 20.9036 34.0645H3.87144C2.58871 34.0645 1.54888 33.0246 1.54888 31.7419ZM1.54888 37.9354C1.54888 36.6527 2.58871 35.6129 3.87144 35.6129H20.9036C22.1863 35.6129 23.2261 36.6527 23.2261 37.9354C23.2261 39.2182 22.1863 40.258 20.9036 40.258H3.87144C2.58871 40.258 1.54888 39.2181 1.54888 37.9354ZM20.9036 46.4515H19.3552H3.87144C2.58871 46.4515 1.54888 45.4117 1.54888 44.1289C1.54888 42.8462 2.58871 41.8064 3.87144 41.8064H20.9036C22.1863 41.8064 23.2261 42.8462 23.2261 44.1289C23.2261 45.4117 22.1863 46.4515 20.9036 46.4515ZM32.5164 45.3568V41.8064H36.0668L32.5164 45.3568ZM41.0324 22.9053L36.1605 18.0334L35.0658 19.1281L37.1615 21.2238V40.258H31.7422C31.3146 40.258 30.968 40.6046 30.968 41.0322V46.4515H23.9802C25.2687 44.7821 24.9601 42.3844 23.2909 41.0957C23.2629 41.0742 23.2346 41.053 23.206 41.0322C24.9163 39.7825 25.2897 37.383 24.0401 35.6727C23.8068 35.3533 23.5254 35.072 23.206 34.8387C24.9228 33.5754 25.2903 31.1595 24.0269 29.4429C23.2965 28.4503 22.1359 27.8662 20.9036 27.871H10.8391V21.2238L12.9348 19.1281L11.8401 18.0334L6.96819 22.9053L1.86939 17.8065L8.89282 10.7831L16.325 9.43216C16.8313 12.789 20.0798 15.3872 23.9988 15.3872C27.9177 15.3872 31.1662 12.789 31.6725 9.43216L39.1047 10.7831L46.1312 17.8065L41.0324 22.9053Z" fill="#008891"/>
<path d="M21.6782 30.9677H3.09766V32.516H21.6782V30.9677Z" fill="#008891"/>
<path d="M20.904 37.1613H3.09766V38.7096H20.904V37.1613Z" fill="#008891"/>
<path d="M20.904 43.3547H3.09766V44.9031H20.904V43.3547Z" fill="#008891"/>
</g>
<defs>
<clipPath id="clip0_16_539">
<rect width="48" height="48" fill="white"/>
</clipPath>
</defs>
</svg>
