<svg width="48" height="48" viewBox="0 0 48 48" fill="none" xmlns="http://www.w3.org/2000/svg">
<g clip-path="url(#clip0_16_805)">
<path d="M23.998 47.998C37.2529 47.998 47.998 37.2529 47.998 23.998C47.998 10.7432 37.2529 -0.00195312 23.998 -0.00195312C10.7432 -0.00195312 -0.00195312 10.7432 -0.00195312 23.998C-0.00195312 37.2529 10.7432 47.998 23.998 47.998Z" fill="#29A71A"/>
<path d="M34.5794 13.4193C32.0824 10.8973 28.7664 9.35074 25.2295 9.05841C21.6926 8.76608 18.1677 9.74728 15.2905 11.825C12.4133 13.9027 10.3734 16.9402 9.53851 20.3896C8.70366 23.839 9.12892 27.4731 10.7376 30.6365L9.15848 38.3029C9.14209 38.3792 9.14163 38.4581 9.15712 38.5346C9.1726 38.611 9.2037 38.6835 9.24848 38.7474C9.31407 38.8445 9.4077 38.9191 9.51686 38.9615C9.62602 39.0039 9.74551 39.012 9.85939 38.9847L17.373 37.2038C20.5276 38.7717 24.1361 39.1696 27.5564 38.3267C30.9768 37.4838 33.9872 35.4548 36.052 32.6006C38.1168 29.7465 39.102 26.2523 38.8323 22.74C38.5627 19.2276 37.0556 15.9248 34.5794 13.4193ZM32.2367 32.1174C30.509 33.8403 28.2843 34.9775 25.876 35.3689C23.4678 35.7604 20.9974 35.3862 18.813 34.2993L17.7658 33.7811L13.1594 34.872L13.173 34.8147L14.1276 30.1783L13.6148 29.1665C12.4987 26.9745 12.105 24.4856 12.4901 22.0561C12.8751 19.6267 14.0192 17.3814 15.7585 15.642C17.9439 13.4573 20.9075 12.23 23.9976 12.23C27.0877 12.23 30.0513 13.4573 32.2367 15.642C32.2553 15.6633 32.2753 15.6834 32.2967 15.702C34.4549 17.8923 35.6598 20.8471 35.6486 23.9221C35.6373 26.9971 34.4109 29.9429 32.2367 32.1174Z" fill="white"/>
<path d="M31.8264 28.7174C31.2619 29.6065 30.37 30.6946 29.2491 30.9646C27.2855 31.4392 24.2719 30.981 20.5219 27.4846L20.4755 27.4437C17.1782 24.3865 16.3219 21.8419 16.5291 19.8237C16.6437 18.6783 17.5982 17.6419 18.4028 16.9655C18.53 16.857 18.6808 16.7797 18.8432 16.7398C19.0056 16.7 19.1751 16.6987 19.3381 16.7361C19.5011 16.7735 19.6531 16.8485 19.7819 16.9551C19.9107 17.0617 20.0128 17.197 20.08 17.3501L21.2937 20.0774C21.3725 20.2542 21.4018 20.4492 21.3782 20.6414C21.3547 20.8335 21.2793 21.0157 21.16 21.1683L20.5464 21.9646C20.4147 22.1291 20.3353 22.3291 20.3183 22.5391C20.3013 22.7491 20.3475 22.9593 20.4509 23.1428C20.7946 23.7455 21.6182 24.6319 22.5319 25.4528C23.5573 26.3801 24.6946 27.2283 25.4146 27.5174C25.6072 27.5961 25.8191 27.6153 26.0227 27.5725C26.2264 27.5297 26.4126 27.4269 26.5573 27.2774L27.2691 26.5601C27.4065 26.4247 27.5773 26.3281 27.7641 26.2801C27.951 26.2322 28.1472 26.2347 28.3328 26.2874L31.2155 27.1055C31.3745 27.1543 31.5203 27.2388 31.6416 27.3526C31.763 27.4663 31.8567 27.6063 31.9157 27.7618C31.9746 27.9174 31.9972 28.0843 31.9817 28.2499C31.9663 28.4156 31.9131 28.5754 31.8264 28.7174Z" fill="white"/>
</g>
<defs>
<clipPath id="clip0_16_805">
<rect width="48" height="48" fill="white"/>
</clipPath>
</defs>
</svg>
