<svg width="1879" height="1368" viewBox="0 0 1879 1368" fill="none" xmlns="http://www.w3.org/2000/svg">
<path d="M823.202 -108.621C694.928 132.915 709.587 428.114 749.882 701.207C790.167 974.3 852.592 1251.45 807.929 1523.8C783.098 1675.21 725.924 1818.61 690.238 1967.64C654.563 2116.66 641.831 2279.95 703.583 2419.33" stroke="#808080" stroke-width="6" stroke-miterlimit="10"/>
<path d="M1093.3 -189.45C978.135 207.374 861.859 612.071 867.894 1026.75C870.746 1222.11 900.809 1415.82 915.92 1610.57C931.032 1805.32 930.641 2005.08 874.361 2191.39" stroke="#808080" stroke-width="6" stroke-miterlimit="10"/>
<path d="M1314.02 -210.468C1233.09 -15.2624 1184.69 202.431 1224.87 411.023C1259.92 592.905 1360.13 758.162 1377.5 942.817C1391.93 1096.19 1347.67 1248.79 1294.62 1392.54C1241.55 1536.31 1178.68 1677.85 1153.14 1829.62C1127.59 1981.4 1144.47 2149.41 1237.17 2269.16" stroke="#808080" stroke-width="6" stroke-miterlimit="10"/>
<path d="M1476.84 -197.938C1507.98 49.8832 1333.83 285.271 1352.28 534.479C1368.92 759.146 1539.85 954.055 1529.61 1179.15C1519.29 1405.91 1328.47 1584.73 1296.21 1809.22C1275.69 1952.11 1322.12 2095.9 1377.09 2228.45" stroke="#808080" stroke-width="6" stroke-miterlimit="10"/>
<path d="M1693.46 -193.006C1715.57 -39.8555 1650.5 110.903 1584.87 249.735C1519.26 388.568 1449.53 535.474 1461.72 689.831C1476.35 875.1 1605.3 1027.93 1654.91 1206.43C1742.78 1522.55 1571.83 1867.67 1649.29 2186.76" stroke="#808080" stroke-width="6" stroke-miterlimit="10"/>
<path d="M692.257 -205.071C738.676 197.499 485.482 575.316 506.146 981.262C515.936 1173.67 586.705 1352 622.421 1539.5C669.714 1787.76 653.789 2054.4 577.538 2291.01" stroke="#808080" stroke-width="6" stroke-miterlimit="10"/>
<path d="M1137.31 -163.735C1059.49 -7.42079 1061.88 179.086 1086.14 353.507C1110.39 527.928 1154.67 700.498 1154.28 876.76C1153.52 1232.07 971.708 1581.17 1039.86 1929.25C1073.01 2098.59 1166.77 2254.16 1298.5 2358.44" stroke="#808080" stroke-width="6" stroke-miterlimit="10"/>
<path d="M1933.42 -197.832C1969.91 1.08782 1941.7 214.008 1855.21 392.599C1791.22 524.743 1694.36 646.019 1683.65 795.783C1670.56 978.628 1788.86 1135.91 1852.25 1305.11C1918.38 1481.63 1925.17 1680.25 1900.11 1869.54C1875.05 2058.83 1819.62 2241.2 1764.46 2422.35" stroke="#808080" stroke-width="6" stroke-miterlimit="10"/>
<path d="M1763.15 2077.33C1836 1937.37 1837.85 1768.54 1815.86 1610.84C1786.7 1401.73 1719.44 1200.73 1674.47 994.724C1629.5 788.714 1607.47 569.835 1668.49 368.386C1728.69 169.615 1866.97 -3.30404 1886.74 -210.785" stroke="#808080" stroke-width="6" stroke-miterlimit="10"/>
<path d="M493.102 -163.566C532.001 21.6914 570.9 218.135 528.135 402.038C476.896 622.398 313.599 798.333 313.167 1027.91C312.936 1146.33 357.639 1257.42 408.868 1356.8C460.097 1456.19 519.47 1550.48 554.794 1660.26C625.031 1878.53 591.012 2126.96 537.202 2352.49" stroke="#808080" stroke-width="6" stroke-miterlimit="10"/>
<path d="M342.789 -149.861C385.734 65.9694 428.599 294.213 378.846 507.727C335.328 694.455 223.24 856.982 218.441 1051.46C213.149 1266 338.341 1445.32 409.401 1640.49C497.25 1881.77 501.758 2168.87 421.551 2414.31C416.259 2406.65 410.967 2398.98 405.676 2391.32" stroke="#808080" stroke-width="6" stroke-miterlimit="10"/>
<path d="M196.822 2165.7C297.313 1932.4 345.299 1647.09 268.103 1400.18C228.953 1274.94 158.967 1162.05 147.41 1028.28C134.327 876.835 198.589 734.002 228.15 586.27C280.062 326.808 222.939 50.032 127.348 -189.027" stroke="#808080" stroke-width="6" stroke-miterlimit="10"/>
<path d="M73.8194 2111.1C18.1821 1974.34 8.45234 1817.68 46.7187 1674.53C85.5674 1529.21 172.774 1389.68 151.908 1240.36C136.044 1126.83 59.8925 1032.98 25.6125 923.991C-10.8967 807.922 2.09637 681.196 27.3696 561.909C52.6529 442.613 89.875 325.538 101.342 203.934C112.809 82.3303 95.2169 -48.4381 21.9977 -143.628" stroke="#808080" stroke-width="6" stroke-miterlimit="10"/>
</svg>
